HIERARCHY
ROOT Hips
{
  OFFSET 0 0.240689 0
  CHANNELS 6 Xposition Yposition Zposition Zrotation Xrotation Yrotation
  JOINT Bip01_Spine0
  {
    OFFSET 0 -24.7459 49.7988
    CHANNELS 6 Xposition Yposition Zposition Zrotation Xrotation Yrotation
    JOINT Bip01_Pelvis
    {
      OFFSET 0 0 0
      CHANNELS 6 Xposition Yposition Zposition Zrotation Xrotation Yrotation
      JOINT Bip01_Spine0_Tail
      {
        OFFSET -6.47486 -3.86022 0
        CHANNELS 6 Xposition Yposition Zposition Zrotation Xrotation Yrotation
        JOINT Bip01_Spine0_Tail1
        {
          OFFSET 10.3837 -0.00825882 0
          CHANNELS 6 Xposition Yposition Zposition Zrotation Xrotation Yrotation
          JOINT Bip01_Spine0_Tail2
          {
            OFFSET 10.3837 -0.00826263 0
            CHANNELS 6 Xposition Yposition Zposition Zrotation Xrotation Yrotation
            JOINT Bip01_Spine0_Tail3
            {
              OFFSET 10.3837 -0.00825882 0
              CHANNELS 6 Xposition Yposition Zposition Zrotation Xrotation Yrotation
              JOINT Bip01_Spine0_Tail4
              {
                OFFSET 10.3837 -0.00826263 0
                CHANNELS 6 Xposition Yposition Zposition Zrotation Xrotation Yrotation
                End Site
                {
                  OFFSET 0 0 0
                }
              }
            }
          }
        }
      }
      JOINT Bip01_R_Thigh
      {
        OFFSET 0 -1.52588e-005 -8.75617
        CHANNELS 6 Xposition Yposition Zposition Zrotation Xrotation Yrotation
        JOINT Bip01_R_Calf
        {
          OFFSET 19.7638 0 0
          CHANNELS 6 Xposition Yposition Zposition Zrotation Xrotation Yrotation
          JOINT Bip01_R_Foot
          {
            OFFSET 18.6534 0 0
            CHANNELS 6 Xposition Yposition Zposition Zrotation Xrotation Yrotation
            JOINT Bip01_R_Toe0
            {
              OFFSET 5.09145 13.9567 0
              CHANNELS 6 Xposition Yposition Zposition Zrotation Xrotation Yrotation
              JOINT Bip01_R_Toe01
              {
                OFFSET 4.28803 0 0
                CHANNELS 6 Xposition Yposition Zposition Zrotation Xrotation Yrotation
                JOINT Bip01_R_Toe02
                {
                  OFFSET 3.85801 0 0
                  CHANNELS 6 Xposition Yposition Zposition Zrotation Xrotation Yrotation
                  End Site
                  {
                    OFFSET 0 0 0
                  }
                }
              }
            }
          }
        }
      }
      JOINT Bip01_L_Thigh
      {
        OFFSET 0 1.52588e-005 8.75617
        CHANNELS 6 Xposition Yposition Zposition Zrotation Xrotation Yrotation
        JOINT Bip01_L_Calf
        {
          OFFSET 19.7638 0 0
          CHANNELS 6 Xposition Yposition Zposition Zrotation Xrotation Yrotation
          JOINT Bip01_L_Foot
          {
            OFFSET 18.6534 0 0
            CHANNELS 6 Xposition Yposition Zposition Zrotation Xrotation Yrotation
            JOINT Bip01_L_Toe0
            {
              OFFSET 5.09144 13.9567 0
              CHANNELS 6 Xposition Yposition Zposition Zrotation Xrotation Yrotation
              JOINT Bip01_L_Toe01
              {
                OFFSET 4.28802 0 0
                CHANNELS 6 Xposition Yposition Zposition Zrotation Xrotation Yrotation
                JOINT Bip01_L_Toe02
                {
                  OFFSET 3.85801 0 0
                  CHANNELS 6 Xposition Yposition Zposition Zrotation Xrotation Yrotation
                  End Site
                  {
                    OFFSET 0 0 0
                  }
                }
              }
            }
          }
        }
      }
      JOINT Bip01_Spine
      {
        OFFSET 9.14835 -0.00640869 -1.1e-005
        CHANNELS 6 Xposition Yposition Zposition Zrotation Xrotation Yrotation
        JOINT Bip01_Spine1
        {
          OFFSET 8.04366 -0.00638199 0
          CHANNELS 6 Xposition Yposition Zposition Zrotation Xrotation Yrotation
          JOINT Bip01_Spine2
          {
            OFFSET 8.04367 -0.00639343 0
            CHANNELS 6 Xposition Yposition Zposition Zrotation Xrotation Yrotation
            JOINT Bip01_Spine3
            {
              OFFSET 8.04304 -0.00831222 0
              CHANNELS 6 Xposition Yposition Zposition Zrotation Xrotation Yrotation
              JOINT Bip01_Neck
              {
                OFFSET 10.6685 1.06813 0
                CHANNELS 6 Xposition Yposition Zposition Zrotation Xrotation Yrotation
                JOINT Bip01_R_Clavicle
                {
                  OFFSET -3.21661 -4.89635 -9.04802
                  CHANNELS 6 Xposition Yposition Zposition Zrotation Xrotation Yrotation
                  JOINT Bip01_R_UpperArm
                  {
                    OFFSET 19.0492 0 0
                    CHANNELS 6 Xposition Yposition Zposition Zrotation Xrotation Yrotation
                    JOINT Bip01_R_Forearm
                    {
                      OFFSET 10.3706 0 0
                      CHANNELS 6 Xposition Yposition Zposition Zrotation Xrotation Yrotation
                      JOINT Bip01_R_Hand
                      {
                        OFFSET 22.8632 0 0
                        CHANNELS 6 Xposition Yposition Zposition Zrotation Xrotation Yrotation
                        JOINT Bip01_R_Finger0
                        {
                          OFFSET 6.48259 0.103651 0.504496
                          CHANNELS 6 Xposition Yposition Zposition Zrotation Xrotation Yrotation
                          JOINT Bip01_R_Finger01
                          {
                            OFFSET 3.66847 0 0
                            CHANNELS 6 Xposition Yposition Zposition Zrotation Xrotation Yrotation
                            End Site
                            {
                              OFFSET 0 0 0
                            }
                          }
                        }
                      }
                    }
                  }
                }
                JOINT Bip01_L_Clavicle
                {
                  OFFSET -3.21661 -4.89641 9.04797
                  CHANNELS 6 Xposition Yposition Zposition Zrotation Xrotation Yrotation
                  JOINT Bip01_L_UpperArm
                  {
                    OFFSET 19.0492 0 0
                    CHANNELS 6 Xposition Yposition Zposition Zrotation Xrotation Yrotation
                    JOINT Bip01_L_Forearm
                    {
                      OFFSET 10.3706 0 0
                      CHANNELS 6 Xposition Yposition Zposition Zrotation Xrotation Yrotation
                      JOINT Bip01_L_Hand
                      {
                        OFFSET 22.8631 0 0
                        CHANNELS 6 Xposition Yposition Zposition Zrotation Xrotation Yrotation
                        JOINT Bip01_L_Finger0
                        {
                          OFFSET 6.48257 0.103655 -0.504492
                          CHANNELS 6 Xposition Yposition Zposition Zrotation Xrotation Yrotation
                          JOINT Bip01_L_Finger01
                          {
                            OFFSET 3.66844 0 0
                            CHANNELS 6 Xposition Yposition Zposition Zrotation Xrotation Yrotation
                            End Site
                            {
                              OFFSET 0 0 0
                            }
                          }
                        }
                      }
                    }
                  }
                }
                JOINT Bip01_Neck1
                {
                  OFFSET 7.52459 -0.00656509 0
                  CHANNELS 6 Xposition Yposition Zposition Zrotation Xrotation Yrotation
                  JOINT Bip01_Neck2
                  {
                    OFFSET 8.4783 -0.00588226 0
                    CHANNELS 6 Xposition Yposition Zposition Zrotation Xrotation Yrotation
                    JOINT Bip01_Head
                    {
                      OFFSET 8.41606 0 0
                      CHANNELS 6 Xposition Yposition Zposition Zrotation Xrotation Yrotation
                      JOINT EyesBlue
                      {
                        OFFSET 0 0 0
                        CHANNELS 6 Xposition Yposition Zposition Zrotation Xrotation Yrotation
                        JOINT EyesBlue_2
                        {
                          OFFSET 0 -0.500007 0
                          CHANNELS 6 Xposition Yposition Zposition Zrotation Xrotation Yrotation
                          End Site
                          {
                            OFFSET 0 0 0
                          }
                        }
                      }
                      JOINT Bip01_Head2_Eyeleds
                      {
                        OFFSET 6.52751 7.61746 2.2e-005
                        CHANNELS 6 Xposition Yposition Zposition Zrotation Xrotation Yrotation
                        End Site
                        {
                          OFFSET 0 0 0
                        }
                      }
                      JOINT Bip01_Head_Muzzle
                      {
                        OFFSET 2.88628 13.9448 3.88994
                        CHANNELS 6 Xposition Yposition Zposition Zrotation Xrotation Yrotation
                        End Site
                        {
                          OFFSET 0 0 0
                        }
                      }
                      JOINT Bip01_Head1_Jaw
                      {
                        OFFSET 0.271065 1.32405 0
                        CHANNELS 6 Xposition Yposition Zposition Zrotation Xrotation Yrotation
                        JOINT _Bip01_Head11_TungeControler
                        {
                          OFFSET 4.61616 5.82872 0
                          CHANNELS 6 Xposition Yposition Zposition Zrotation Xrotation Yrotation
                          JOINT _Bip01_Ponytail3_tunge
                          {
                            OFFSET 5.17785 2.98805 0
                            CHANNELS 6 Xposition Yposition Zposition Zrotation Xrotation Yrotation
                            JOINT Bip01_Ponytail31
                            {
                              OFFSET 5.57569 0 0
                              CHANNELS 6 Xposition Yposition Zposition Zrotation Xrotation Yrotation
                              JOINT Bip01_Ponytail32
                              {
                                OFFSET 2.93165 0 0
                                CHANNELS 6 Xposition Yposition Zposition Zrotation Xrotation Yrotation
                                JOINT Bip01_Ponytail3Nub
                                {
                                  OFFSET 3.30155 0 0
                                  CHANNELS 6 Xposition Yposition Zposition Zrotation Xrotation Yrotation
                                  End Site
                                  {
                                    OFFSET 0 0 0
                                  }
                                }
                              }
                            }
                          }
                        }
                        JOINT Bip01_Head_JawNub
                        {
                          OFFSET 15.5776 -0.000389099 0
                          CHANNELS 6 Xposition Yposition Zposition Zrotation Xrotation Yrotation
                          End Site
                          {
                            OFFSET 0 0 0
                          }
                        }
                      }
                      JOINT Bip01_Ponytail2
                      {
                        OFFSET 9.40334 1.03973 -6.51764
                        CHANNELS 6 Xposition Yposition Zposition Zrotation Xrotation Yrotation
                        JOINT Bip01_Ponytail21
                        {
                          OFFSET 2.77018 -0.00640106 1.33514e-005
                          CHANNELS 6 Xposition Yposition Zposition Zrotation Xrotation Yrotation
                          End Site
                          {
                            OFFSET 0 0 0
                          }
                        }
                      }
                      JOINT Bip01_Ponytail1
                      {
                        OFFSET 9.40368 1.03969 6.51768
                        CHANNELS 6 Xposition Yposition Zposition Zrotation Xrotation Yrotation
                        JOINT Bip01_Ponytail11
                        {
                          OFFSET 2.77018 -0.00640487 0
                          CHANNELS 6 Xposition Yposition Zposition Zrotation Xrotation Yrotation
                          End Site
                          {
                            OFFSET 0 0 0
                          }
                        }
                      }
                    }
                  }
                }
              }
            }
          }
        }
      }
    }
  }
}
MOTION
Frames:	4
Frame Time:	0.0333333
5.43493 1e-006 6.38248 -0 -90 -0 -0.105736 -27.1013 46.8065 90 3.37049e-005 96.5277 0 0 0 -89.9998 -4.91177e-006 -82.1432 -6.41389 -3.86071 -0.885046 139.314 -5.13917 5.9489 10.3792 -0.007156 0.000137 1.26371 0.00197096 0.00108663 10.3822 -0.008049 3.7e-005 -6.80002 0.00474936 4.20296 10.3856 -0.007801 0.000129 16.8202 0.00371765 4.20262 10.3809 -0.007808 0.000118 20.9274 0.00173819 0.000499213 1.1e-005 -1.1e-005 -8.75617 -115.015 6.01614 175.116 19.7638 7.10543e-015 -3.55271e-015 -97.3021 -0.000194005 0.0031764 18.6534 -1.06581e-014 1.06581e-014 38.6717 14.804 3.45559 5.09144 13.9567 2.50164e-006 86.5084 3.05618 1.63945 4.288 -1e-006 3e-006 23.7441 0.00143349 0.00197293 3.85799 3.96128e-013 -1e-006 -23.5 0.000682263 0.00102982 -1.5e-005 1.1e-005 8.75617 -124.136 0.510077 -164.74 19.7638 8.88179e-015 1.77636e-015 -72.8133 0.000228179 0.00327879 18.6534 3e-006 -3.55271e-015 -2.12315 5.52955 -12.153 5.09143 13.9567 1.24345e-014 93.5357 -0.633125 4.41039 4.288 -7.10543e-015 -8.88178e-015 64.9945 -6.62978e-007 -1.60336e-006 3.85799 -4.26326e-014 1e-006 -45.0006 0.000493081 0.00120423 9.06197 -0.006301 1.25048 -2.5129 0.347213 -7.84943 8.04366 -0.006401 8.88179e-016 2.19038 -2.66098e-005 -0.00182079 8.04364 -0.006278 0.000106 5.87271 -1.13321 0.0128478 8.04304 -0.008323 0 -6.53252 0.00427362 -0.0013155 10.67 1.06808 1e-006 -20.3812 0.000476438 0.00105806 -2.58562 -5.25574 -9.04791 -159.664 -74.4171 129.5 19.0492 -7.10543e-015 1.42109e-014 97.9298 -8.36773 -87.4536 10.3706 -1.24345e-014 3.55271e-015 -80.1085 -0.000143807 -0.00187758 22.8631 -1e-006 -7.10543e-015 -50.2931 37.8705 22.7916 6.48255 0.103653 0.504496 -28.8505 -12.0849 -9.77753 3.66843 6.52811e-014 1e-006 40.107 2.83073e-006 7.81823e-006 -2.58548 -5.25565 9.04799 -159.644 79.5897 -122.702 19.0492 1.59872e-014 3e-006 91.4598 19.9728 102.37 10.3706 1.42109e-014 -6.21725e-015 -111.034 -0.000430225 0.00230214 22.8631 1.06581e-014 -6.21725e-015 -18.3423 -18.8391 -4.30651 6.48255 0.103653 -0.504495 -49.5366 7.86211 13.4009 3.66843 -1.02141e-013 -1e-006 40.107 6.09215e-006 -1.14056e-006 7.52551 -0.006637 2.9e-005 -8.75261 0.00149151 0.0018762 8.47685 -0.006446 2.7e-005 0.564328 0.000941629 0.00121532 8.41605 3e-006 -2.66454e-015 -59.1011 -0.061204 1.13344 0 1e-006 -3e-006 -23.1098 1.37701e-015 90 3.17282e-008 -0.500004 -9.21916e-006 -180 90 -90 0 0 0 -106.303 -7.01671e-015 -180 4.69999 13.8017 3.88993 -22.989 1.3702e-015 90 0 0 0 -85.3358 -7.01671e-015 -180 0 0 0 -120.289 1.70578e-007 -2.00954e-005 0 0 0 133.74 -1.98055e-005 4.76483e-006 0 0 0 1.83152 3.50516e-008 -1.32995e-008 0 0 0 -17.65 4.61586e-007 1.15477e-007 0 0 0 -26.1943 -5.01834e-008 -4.35488e-008 15.5776 -0.000396 -7e-006 -6.31414e-038 -2.32951e-018 -1.55301e-018 9.40316 1.03979 -6.51764 8.23757 -36.3316 58.4157 2.77018 -0.006362 3.60003e-005 -18.9168 15.9612 18.4652 9.40365 1.03979 6.51761 8.23522 36.3314 -58.4141 2.77018 -0.006366 3.39997e-005 -18.9158 -15.9594 -18.4628 
5.97842 1e-006 7.02076 -0 -90 -0 -0.0909943 -27.3276 46.4962 90 3.54514e-005 97.1555 0 0 0 -89.9998 1.44766e-005 -82.8651 -6.4245 -3.86071 -0.80415 139.798 -4.61804 5.44242 10.3792 -0.007156 0.000137 2.46779 0.00199336 0.00104497 10.3822 -0.008049 3.7e-005 -6.80002 0.00474924 4.20296 10.3856 -0.007801 0.000129 16.8202 0.00371756 4.20262 10.3809 -0.007808 0.000118 21.7446 0.00174735 0.000474334 1.1e-005 -1.1e-005 -8.75617 -112.922 5.69377 174.203 19.7638 7.10543e-015 0 -96.8519 -0.00016828 0.00317785 18.6534 3.55271e-015 1.06581e-014 40.1579 14.0671 3.63123 5.09144 13.9567 2.4587e-006 87.6571 3.23538 1.38969 4.288 -1e-006 3e-006 18.0061 0.00123412 0.00210853 3.85799 3.01981e-013 -1e-006 -23.5 0.000679044 0.00102777 -1.5e-005 1.1e-005 8.75617 -126.181 0.240398 -164.192 19.7638 5.32907e-015 1.77636e-015 -73.3224 0.000199033 0.00328068 18.6534 3e-006 5.32907e-015 -1.1211 5.05321 -10.7778 5.09143 13.9567 1.77636e-015 91.8155 -1.66946 3.32013 4.288 -3.55271e-015 1.77636e-015 64.4371 -1.55062e-006 -1.31933e-006 3.85799 -6.21725e-014 1e-006 -45.0006 0.000494339 0.00120477 9.07679 -0.006301 1.13612 -2.7842 0.348887 -7.12563 8.04366 -0.006401 0 2.41755 1.91832e-005 -0.00056503 8.04364 -0.006278 0.000106 6.05875 -0.277045 0.00392004 8.04304 -0.008323 0 -6.69711 0.00413082 -5.50344e-005 10.67 1.06808 1e-006 -21.7039 0.000451888 0.00106877 -2.46356 -5.3143 -9.04791 -158.341 -74.4149 129.501 19.0492 0 1.77636e-014 99.4457 -10.5278 -88.2862 10.3706 -1.77636e-015 7.10543e-015 -87.7168 -3.02922e-005 -0.00187503 22.8631 -1e-006 7.10543e-015 -44.6594 36.9688 20.5313 6.48255 0.103653 0.504496 -28.8505 -12.0849 -9.77753 3.66843 5.9508e-014 1e-006 40.107 2.7414e-006 7.98227e-006 -2.46339 -5.31419 9.04799 -158.324 79.0121 -123.461 19.0492 1.42109e-014 3e-006 90.8806 19.7736 103.183 10.3706 3.55272e-015 7.10543e-015 -112.388 -0.000459322 0.00230168 22.8631 3.55272e-015 -3.55271e-015 -19.0951 -19.8343 -5.33139 6.48255 0.103653 -0.504495 -46.9245 8.46938 13.0299 3.66843 -9.03722e-014 -1e-006 40.107 5.70717e-006 -1.16293e-006 7.52551 -0.006637 2.9e-005 -7.77902 0.00152317 0.00185059 8.47685 -0.006446 2.7e-005 0.164188 0.000933119 0.00122187 8.41605 3e-006 -8.88179e-016 -60.0554 -0.0201168 0.277627 -1.42109e-014 1e-006 -3e-006 -23.1098 1.37701e-015 90 3.13397e-008 -0.500004 -9.21874e-006 -180 90 -90 0 0 0 -105.578 7.01671e-015 -180 4.88136 13.7874 3.88993 -22.989 1.3702e-015 90 0 0 0 -85.3358 7.01671e-015 -180 0 0 0 -120.289 1.02697e-007 -2.0023e-005 0 0 0 133.74 -1.95507e-005 4.74634e-006 0 0 0 1.83152 5.81012e-008 -4.59231e-009 0 0 0 -17.65 1.09556e-007 2.59273e-008 0 0 0 -26.1943 -1.48104e-008 -1.23903e-008 15.5776 -0.000396 -7e-006 -3.18055e-015 -3.49426e-018 -1.35888e-018 9.40316 1.03979 -6.51764 13.9053 -40.0284 64.7989 2.77018 -0.006362 3.60005e-005 -21.3004 17.0927 20.6002 9.40365 1.03979 6.51761 13.9036 40.0282 -64.7969 2.77018 -0.006366 3.39995e-005 -21.2994 -17.0913 -20.5973 
6.52191 1e-006 7.659 -0 -90 -0 -0.076391 -27.546 46.1968 90 3.04738e-005 97.7607 0 0 0 -89.9997 -5.3209e-006 -83.7749 -6.43643 -3.86071 -0.702065 140.27 -3.98722 4.783 10.3792 -0.007156 0.000137 2.53973 0.00199467 0.00104247 10.3822 -0.008049 3.7e-005 -6.80002 0.00474919 4.20296 10.3856 -0.007801 0.000129 16.8202 0.00371757 4.20262 10.3809 -0.007808 0.000118 20.7925 0.0017396 0.00050323 1.1e-005 -1.1e-005 -8.75617 -111.152 5.10264 173.099 19.7638 1.42109e-014 3.55271e-015 -96.05 -0.00015047 0.00317706 18.6534 7.10543e-015 0 40.6363 13.164 3.87204 5.09144 13.9567 2.41742e-006 88.4492 3.35568 1.20635 4.288 -1e-006 3e-006 13.9429 0.00108475 0.00219189 3.85799 2.0961e-013 -1e-006 -23.5 0.000676886 0.00102644 -1.5e-005 1.1e-005 8.75617 -128.39 -0.123803 -163.871 19.7638 1.77636e-015 -5.32907e-015 -73.7572 0.000174135 0.0032821 18.6534 3e-006 7.10543e-015 -0.609993 4.44855 -9.16253 5.09143 13.9567 1.77636e-015 90.6279 -2.72818 2.03641 4.288 -7.10543e-015 0 62.8037 -2.93504e-006 -9.73898e-007 3.85799 -7.81597e-014 1e-006 -45.0006 0.000496383 0.00120566 9.09349 -0.006301 0.991854 -3.07178 0.335407 -6.21525 8.04366 -0.006401 -1.77636e-015 2.64707 4.2155e-005 -1.92703e-005 8.04364 -0.006278 0.000106 6.29753 0.208705 -0.00274767 8.04304 -0.008323 8.88179e-016 -6.87038 0.00406453 0.00050885 10.67 1.06808 1e-006 -22.6046 0.000435031 0.00107575 -2.37983 -5.35266 -9.04791 -157.437 -74.4172 129.503 19.0492 -7.10543e-015 -2.13163e-014 100.228 -11.5744 -89.7871 10.3706 1.42109e-014 0 -94.0191 6.3291e-005 -0.0018758 22.8631 -1e-006 0 -39.1976 35.6079 18.2944 6.48255 0.103653 0.504496 -28.8505 -12.0849 -9.77753 3.66843 9.23706e-014 1e-006 40.107 2.61835e-006 8.25531e-006 -2.3796 -5.35259 9.04799 -157.427 78.4342 -124.219 19.0492 3.01981e-014 3e-006 90.7216 18.4959 103.795 10.3706 3.55272e-015 2.66453e-015 -113.689 -0.0004862 0.00230089 22.8631 -1.42109e-014 -1.42109e-014 -18.5383 -20.1417 -6.08739 6.48255 0.103653 -0.504495 -44.5259 9.01018 12.6653 3.66843 -7.23866e-014 -1e-006 40.107 5.38806e-006 -1.15051e-006 7.52551 -0.006637 2.9e-005 -5.86981 0.00158398 0.00179881 8.47685 -0.006446 2.7e-005 0.440209 0.000938994 0.00121736 8.41605 3e-006 2.66454e-015 -62.8592 0.0274647 -0.204888 0 1e-006 -3e-006 -23.1098 1.37701e-015 90 3.10973e-008 -0.500004 -9.21836e-006 -180 90 -90 0 0 0 -104.853 -7.01671e-015 -180 5.06273 13.7731 3.88993 -22.989 1.3702e-015 90 0 0 0 -85.3358 -7.01671e-015 -180 0 0 0 -120.289 5.68049e-008 -1.99708e-005 0 0 0 133.74 -1.93554e-005 4.73521e-006 0 0 0 1.83152 -1.78012e-008 1.9908e-009 0 0 0 -17.65 -6.37406e-008 -1.34792e-008 0 0 0 -26.1943 1.1655e-008 9.4362e-009 15.5776 -0.000396 -7e-006 2.95975e-038 -1.45594e-018 1.16475e-018 9.40316 1.03979 -6.51764 20.1586 -43.0702 71.7232 2.77018 -0.006362 3.60006e-005 -23.6533 18.1009 22.7163 9.40365 1.03979 6.51761 20.1589 43.0702 -71.7226 2.77018 -0.006366 3.39994e-005 -23.6523 -18.1003 -22.7134 
7.06543 1e-006 8.29725 -0 -90 -0 -0.0619529 -27.7588 45.9051 90 3.64648e-005 98.3497 0 0 0 -89.9997 -1.20588e-006 -84.8291 -6.44824 -3.86071 -0.583585 140.758 -3.2756 4.00207 10.3792 -0.007156 0.000137 1.04744 0.00196684 0.00109406 10.3822 -0.008049 3.7e-005 -6.80002 0.00474926 4.20296 10.3856 -0.007801 0.000129 16.8202 0.00371777 4.20262 10.3809 -0.007808 0.000118 17.3504 0.0017044 0.000606583 1.1e-005 -1.1e-005 -8.75617 -109.988 4.29284 171.758 19.7638 0 0 -94.94 -0.00011651 0.0031771 18.6534 0 0 39.8653 12.0383 4.17446 5.09144 13.9567 2.37859e-006 89.015 3.44867 1.17283 4.288 -1e-006 3e-006 12.18 0.00101818 0.00222471 3.85799 1.93623e-013 -1e-006 -23.5 0.000675791 0.00102575 -1.5e-005 1.1e-005 8.75617 -130.736 -0.55452 -163.73 19.7638 5.32907e-015 1.77636e-015 -74.1123 0.000153789 0.00328312 18.6534 3e-006 1.06581e-014 -0.572321 3.75562 -7.36183 5.09143 13.9567 -1.77636e-015 89.9509 -3.81325 0.597394 4.288 -7.10543e-015 -5.32907e-015 60.2281 3.69036e-006 4.3998e-006 3.85799 -8.61534e-014 1e-006 -45.0006 0.000499122 0.001207 9.1101 -0.006301 0.824447 -3.39303 0.307373 -5.16097 8.04366 -0.006401 0 2.89777 4.20703e-005 -1.94545e-005 8.04364 -0.006278 0.000106 6.58203 0.43503 -0.00765477 8.04304 -0.008323 -1.77636e-015 -7.06539 0.00406277 0.000522686 10.67 1.06808 1e-006 -22.9586 0.000428376 0.00107841 -2.34679 -5.36737 -9.04791 -157.085 -74.4157 129.503 19.0492 0 -7.10543e-015 100.35 -11.5612 -91.8718 10.3706 1.77636e-014 -7.10543e-015 -99.1519 0.000145547 -0.00187759 22.8631 -1e-006 0 -33.9673 33.7652 16.192 6.48255 0.103653 0.504496 -28.8505 -12.0849 -9.77753 3.66843 9.76997e-014 1e-006 40.107 2.46474e-006 8.61873e-006 -2.34658 -5.36735 9.04799 -157.077 77.8451 -124.992 19.0492 1.24345e-014 3e-006 90.9571 16.0987 104.272 10.3706 -7.10543e-015 -6.21725e-015 -114.639 -0.000498858 0.00230247 22.8631 1.06581e-014 1.06581e-014 -16.9839 -19.9127 -6.61756 6.48255 0.103653 -0.504495 -42.2398 9.50968 12.2974 3.66843 -9.85879e-014 -1e-006 40.107 5.06114e-006 -1.07015e-006 7.52551 -0.006637 2.9e-005 -2.58389 0.00168448 0.00170507 8.47685 -0.006446 2.7e-005 1.66388 0.000964777 0.00119703 8.41605 3e-006 0 -68.3115 0.0635015 -0.42751 7.10543e-015 1e-006 -3e-006 -23.1098 1.37701e-015 90 3.09722e-008 -0.500004 -9.21806e-006 180 90 -90 0 0 0 -104.129 -1.52588e-005 -180 5.24411 13.7588 3.88993 -22.989 1.3702e-015 90 0 0 0 -85.3358 -7.01671e-015 -180 0 0 0 -120.289 2.94255e-008 -1.99378e-005 0 0 0 133.74 -1.92766e-005 4.72934e-006 0 0 0 1.83152 -4.43777e-008 4.68916e-009 0 0 0 -17.65 -1.49279e-007 -3.10069e-008 0 0 0 -26.1943 2.88964e-008 2.28777e-008 15.5776 -0.000396 -7e-006 -1.59028e-015 2.42657e-018 -7.76503e-019 9.40316 1.03979 -6.51764 26.9878 -45.4357 79.1931 2.77018 -0.006362 3.60007e-005 -25.9921 19.0015 24.8277 9.40365 1.03979 6.51761 26.9888 45.4355 -79.1939 2.77018 -0.006366 3.39993e-005 -25.9913 -19.0011 -24.8254 
